<svg width="753" height="168" viewBox="0 0 753 168" fill="none" xmlns="http://www.w3.org/2000/svg">
<path d="M478.454 4.16141L478.709 4.50588C479.31 5.31431 479.43 6.38285 479.013 7.30377L425.714 125.413C425.261 126.418 424.257 127.058 423.153 127.058H399.121C398.017 127.058 397.013 126.411 396.56 125.413L343.226 7.20535C342.837 6.34067 342.915 5.3354 343.438 4.54103L343.601 4.29498C344.117 3.50763 345.001 3.0296 345.949 3.0296H378.9C380.081 3.0296 381.128 3.76071 381.531 4.8644L408.662 78.7133C409.546 81.1245 412.969 81.1667 413.909 78.7765L443.041 4.80816C443.459 3.73962 444.498 3.03663 445.651 3.03663H476.198C477.089 3.0296 477.931 3.4514 478.454 4.16141Z" fill="white"/>
<path d="M616.391 4.22468L616.61 4.54103C617.162 5.3354 617.268 6.35473 616.879 7.2405L561.204 135.297C551.698 157.096 536.591 168 515.748 168C507.105 168 499.693 166.334 493.512 162.987C492.988 162.706 492.578 162.256 492.324 161.729L491.956 160.97C491.659 160.351 491.602 159.641 491.8 158.987L498.074 137.764C498.307 136.97 498.887 136.323 499.644 135.993L499.99 135.845C500.782 135.501 501.674 135.571 502.444 135.951C505.705 137.567 509.446 138.32 513.676 138.207C520.501 138.207 525.374 134.938 528.422 128.274L533.097 118.552C533.458 117.806 533.465 116.942 533.118 116.19L482.889 7.21238C482.486 6.34067 482.563 5.32837 483.087 4.52697L483.242 4.29498C483.759 3.50763 484.643 3.0296 485.59 3.0296H520.041C521.201 3.0296 522.241 3.73962 522.658 4.81519L549.562 74.1438C550.489 76.527 553.883 76.5199 554.796 74.1368L581.474 4.82222C581.891 3.74665 582.931 3.0296 584.09 3.0296H614.085C615.012 3.0296 615.868 3.47951 616.391 4.22468Z" fill="white"/>
<path d="M662.384 73.5255C660.658 73.5255 659.315 75.0721 659.605 76.7663C660.906 84.2953 664.202 90.2285 669.655 94.4816C675.872 99.3251 683.425 101.75 692.322 101.75C706.135 101.75 717.437 97.4271 725.995 88.8998C726.525 88.3726 727.233 88.0633 727.982 88.0633H728.371C729.093 88.0633 729.786 88.3374 730.309 88.8366L745.933 103.712C746.484 104.239 746.796 104.963 746.796 105.722V106.39C746.796 107.065 746.555 107.726 746.11 108.232C739.744 115.459 731.575 120.773 721.815 124.394C711.701 128.267 701.22 130.088 690.618 130.088C670.758 130.088 654.427 124.028 641.386 112.042C628.344 100.049 621.766 84.5483 621.766 65.2865C621.766 46.5097 627.983 30.8893 640.53 18.5308C652.963 6.17926 668.926 0 688.298 0C706.701 0 722.056 5.81371 734.235 17.4411C746.421 29.5536 752.517 44.935 752.517 63.5923C752.517 66.2566 752.383 68.7171 752.121 71.0369C751.959 72.4499 750.756 73.5185 749.327 73.5185H662.384V73.5255ZM662.787 51.5993H711.624C713.455 51.5993 714.764 49.891 714.346 48.1195C713.088 42.8049 710.746 38.4113 707.323 35.0088C702.33 29.7997 695.625 27.1353 687.336 27.1353C673.283 27.1353 663.07 35.2759 660.043 48.232C659.633 49.9543 661.005 51.5993 662.787 51.5993Z" fill="white"/>
<path d="M102.878 127.171H71.4968C70.5349 127.171 69.7499 126.398 69.7499 125.435V1.80715C69.7499 0.851086 70.5279 0.0707703 71.4968 0.0707703H102.878C103.84 0.0707703 104.625 0.844056 104.625 1.80715V125.435C104.625 126.398 103.84 127.171 102.878 127.171Z" fill="#806BFF"/>
<path d="M172.621 127.171H141.24C140.278 127.171 139.493 126.398 139.493 125.435V1.80715C139.493 0.851086 140.271 0.0707703 141.24 0.0707703H172.621C173.583 0.0707703 174.368 0.844056 174.368 1.80715V125.435C174.368 126.398 173.59 127.171 172.621 127.171Z" fill="#806BFF"/>
<path d="M33.1281 127.171H1.74693C0.785058 127.171 0 126.397 0 125.434V1.80672C0 0.850659 0.777985 0.070343 1.74693 0.070343H33.1281C34.0899 0.070343 34.875 0.843629 34.875 1.80672V125.434C34.875 126.397 34.0899 127.171 33.1281 127.171Z" fill="#806BFF"/>
<path d="M318.84 18.5308C305.798 6.17926 289.347 0 269.367 0C249.38 0 232.809 6.17926 219.774 18.5308C206.739 30.8822 200.155 46.3902 200.155 65.0404C200.155 83.6907 206.732 99.1986 219.774 111.55C232.816 123.902 249.387 130.081 269.367 130.081C289.354 130.081 305.805 123.902 318.84 111.55C331.754 99.1986 338.212 83.6907 338.212 65.0404C338.212 46.3902 331.754 30.8893 318.84 18.5308ZM301.37 68.6186L250.342 96.3374C247.626 97.8137 244.309 95.8594 244.309 92.7803V37.3497C244.309 34.2706 247.626 32.3234 250.342 33.7926L301.37 61.5114C304.2 63.051 304.2 67.0861 301.37 68.6186Z" fill="#806BFF"/>
</svg>
